<svg id="Layer_1" enable-background="new 0 0 501.668 501.668" height="512" viewBox="0 0 501.668 501.668" width="512" xmlns="http://www.w3.org/2000/svg"><g id="XMLID_66_"><path id="XMLID_725_" d="m108.326 171.667c-142.77 147.899-36.634 330 112.447 330l10-180.5-10-149.5-55.668-10z" fill="#d87f4a"/><path id="XMLID_724_" d="m333.219 171.667-52.697-10-59.749 10v330c149.128.001 255.184-182.132 112.446-330z" fill="#ac5e2e"/><path id="XMLID_723_" d="m460.772 186.667h-22.5c-20.678 0-37.5-16.822-37.5-37.5 0-4.135-3.363-7.5-7.5-7.5h-37.499l-6.334-15 6.334-15h37.499c20.679 0 37.5 16.823 37.5 37.5 0 4.136 3.365 7.5 7.5 7.5h22.5z" fill="#ffb454"/><path id="XMLID_720_" d="m220.773 5.856-45.6 15.201-84.222-21.057 32.667 81.668 47.821 9.667 49.334-9.667 10-30.001z" fill="#d87f4a"/><path id="XMLID_719_" d="m317.928 81.668 32.667-81.668-84.222 21.057-45.6-15.201v75.812l45 10z" fill="#ac5e2e"/><path id="XMLID_718_" d="m85.773 81.668v89.999h135l10-44.999-10-45z" fill="#ffe705"/><path id="XMLID_717_" d="m220.773 81.668h135v90h-135z" fill="#ffcb00"/><g id="XMLID_67_"><path id="XMLID_716_" d="m175.773 366.668v30h30v30h15l10-30-10-30z" fill="#f4f1f1"/><path id="XMLID_715_" d="m205.773 249.248c-17.459 6.192-30 22.865-30 42.419 0 24.813 20.187 45 45 45l10-15.25-10-14.75c-8.271 0-15-6.729-15-15s6.729-15 15-15l10-25.167-10-34.834h-15z" fill="#f4f1f1"/><g fill="#eceae7"><path id="XMLID_714_" d="m235.773 351.668c0 8.271-6.729 15-15 15v60h15v-32.58c17.458-6.192 30-22.865 30-42.42 0-24.813-20.187-45-45-45v30c8.271 0 15 6.729 15 15z"/><path id="XMLID_713_" d="m265.773 276.668v-30.001h-30v-30h-15v60.001z"/></g></g></g></svg>